<?xml version="1.0" encoding="UTF-8" standalone="no"?>
<!DOCTYPE svg PUBLIC "-//W3C//DTD SVG 1.1//EN"
 "http://www.w3.org/Graphics/SVG/1.1/DTD/svg11.dtd">
<!-- Generated by graphviz version 2.47.0 (20210316.0004)
 -->
<!-- Title: dbml Pages: 1 -->
<svg width="2037pt" height="3109pt"
 viewBox="0.00 0.00 2037.27 3109.07" xmlns="http://www.w3.org/2000/svg" xmlns:xlink="http://www.w3.org/1999/xlink">
<g id="graph0" class="graph" transform="scale(1 1) rotate(0) translate(4 3105.07)">
<title>dbml</title>
<!-- AgileAiService -->
<g id="AgileAiService" class="node">
<title>AgileAiService</title>
<ellipse fill="none" stroke="black" stroke-width="0" cx="1766.23" cy="-593.96" rx="263.09" ry="214.92"/>
<polygon fill="#1d71b8" stroke="transparent" points="1582.23,-683.96 1582.23,-743.96 1950.23,-743.96 1950.23,-683.96 1582.23,-683.96"/>
<polygon fill="none" stroke="#29235c" points="1582.23,-683.96 1582.23,-743.96 1950.23,-743.96 1950.23,-683.96 1582.23,-683.96"/>
<text text-anchor="start" x="1600.86" y="-705.16" font-family="Helvetica,sans-Serif" font-weight="bold" font-size="32.00" fill="#ffffff"> &#160;&#160;&#160;&#160;&#160;&#160;AgileAiService &#160;&#160;&#160;&#160;&#160;&#160;</text>
<polygon fill="#e7e2dd" stroke="transparent" points="1582.23,-623.96 1582.23,-683.96 1950.23,-683.96 1950.23,-623.96 1582.23,-623.96"/>
<polygon fill="none" stroke="#29235c" points="1582.23,-623.96 1582.23,-683.96 1950.23,-683.96 1950.23,-623.96 1582.23,-623.96"/>
<text text-anchor="start" x="1593.23" y="-645.16" font-family="Helvetica,sans-Serif" font-weight="bold" font-size="32.00" fill="#29235c">id</text>
<text text-anchor="start" x="1618.12" y="-645.16" font-family="Helvetica,sans-Serif" font-size="32.00" fill="#29235c"> &#160;&#160;&#160;</text>
<text text-anchor="start" x="1797.01" y="-645.16" font-family="Helvetica,sans-Serif" font-style="italic" font-size="32.00" fill="#29235c">INTEGER</text>
<polygon fill="#e7e2dd" stroke="transparent" points="1582.23,-563.96 1582.23,-623.96 1950.23,-623.96 1950.23,-563.96 1582.23,-563.96"/>
<polygon fill="none" stroke="#29235c" points="1582.23,-563.96 1582.23,-623.96 1950.23,-623.96 1950.23,-563.96 1582.23,-563.96"/>
<text text-anchor="start" x="1593.23" y="-584.16" font-family="Helvetica,sans-Serif" font-size="32.00" fill="#29235c">name &#160;&#160;&#160;</text>
<text text-anchor="start" x="1782.8" y="-585.16" font-family="Helvetica,sans-Serif" font-style="italic" font-size="32.00" fill="#29235c">VARCHAR</text>
<polygon fill="#e7e2dd" stroke="transparent" points="1582.23,-503.96 1582.23,-563.96 1950.23,-563.96 1950.23,-503.96 1582.23,-503.96"/>
<polygon fill="none" stroke="#29235c" points="1582.23,-503.96 1582.23,-563.96 1950.23,-563.96 1950.23,-503.96 1582.23,-503.96"/>
<text text-anchor="start" x="1593.1" y="-524.16" font-family="Helvetica,sans-Serif" font-size="32.00" fill="#29235c">description &#160;&#160;&#160;</text>
<text text-anchor="start" x="1783.02" y="-525.16" font-family="Helvetica,sans-Serif" font-style="italic" font-size="32.00" fill="#29235c">VARCHAR</text>
<polygon fill="#e7e2dd" stroke="transparent" points="1582.23,-443.96 1582.23,-503.96 1950.23,-503.96 1950.23,-443.96 1582.23,-443.96"/>
<polygon fill="none" stroke="#29235c" points="1582.23,-443.96 1582.23,-503.96 1950.23,-503.96 1950.23,-443.96 1582.23,-443.96"/>
<text text-anchor="start" x="1593.23" y="-464.16" font-family="Helvetica,sans-Serif" font-size="32.00" fill="#29235c">platform &#160;&#160;&#160;</text>
<text text-anchor="start" x="1782.8" y="-465.16" font-family="Helvetica,sans-Serif" font-style="italic" font-size="32.00" fill="#29235c">VARCHAR</text>
<polygon fill="none" stroke="#29235c" stroke-width="2" points="1581.23,-442.96 1581.23,-744.96 1951.23,-744.96 1951.23,-442.96 1581.23,-442.96"/>
</g>
<!-- BlogPost -->
<g id="BlogPost" class="node">
<title>BlogPost</title>
<ellipse fill="none" stroke="black" stroke-width="0" cx="379.72" cy="-2607.96" rx="281.36" ry="214.92"/>
<polygon fill="#1d71b8" stroke="transparent" points="182.72,-2697.96 182.72,-2757.96 576.72,-2757.96 576.72,-2697.96 182.72,-2697.96"/>
<polygon fill="none" stroke="#29235c" points="182.72,-2697.96 182.72,-2757.96 576.72,-2757.96 576.72,-2697.96 182.72,-2697.96"/>
<text text-anchor="start" x="253.45" y="-2719.16" font-family="Helvetica,sans-Serif" font-weight="bold" font-size="32.00" fill="#ffffff"> &#160;&#160;&#160;&#160;&#160;&#160;BlogPost &#160;&#160;&#160;&#160;&#160;&#160;</text>
<polygon fill="#e7e2dd" stroke="transparent" points="182.72,-2637.96 182.72,-2697.96 576.72,-2697.96 576.72,-2637.96 182.72,-2637.96"/>
<polygon fill="none" stroke="#29235c" points="182.72,-2637.96 182.72,-2697.96 576.72,-2697.96 576.72,-2637.96 182.72,-2637.96"/>
<text text-anchor="start" x="193.72" y="-2659.16" font-family="Helvetica,sans-Serif" font-weight="bold" font-size="32.00" fill="#29235c">id</text>
<text text-anchor="start" x="218.61" y="-2659.16" font-family="Helvetica,sans-Serif" font-size="32.00" fill="#29235c"> &#160;&#160;&#160;</text>
<text text-anchor="start" x="423.5" y="-2659.16" font-family="Helvetica,sans-Serif" font-style="italic" font-size="32.00" fill="#29235c">INTEGER</text>
<polygon fill="#e7e2dd" stroke="transparent" points="182.72,-2577.96 182.72,-2637.96 576.72,-2637.96 576.72,-2577.96 182.72,-2577.96"/>
<polygon fill="none" stroke="#29235c" points="182.72,-2577.96 182.72,-2637.96 576.72,-2637.96 576.72,-2577.96 182.72,-2577.96"/>
<text text-anchor="start" x="193.72" y="-2598.16" font-family="Helvetica,sans-Serif" font-size="32.00" fill="#29235c">title &#160;&#160;&#160;</text>
<text text-anchor="start" x="409.29" y="-2599.16" font-family="Helvetica,sans-Serif" font-style="italic" font-size="32.00" fill="#29235c">VARCHAR</text>
<polygon fill="#e7e2dd" stroke="transparent" points="182.72,-2517.96 182.72,-2577.96 576.72,-2577.96 576.72,-2517.96 182.72,-2517.96"/>
<polygon fill="none" stroke="#29235c" points="182.72,-2517.96 182.72,-2577.96 576.72,-2577.96 576.72,-2517.96 182.72,-2517.96"/>
<text text-anchor="start" x="193.72" y="-2538.16" font-family="Helvetica,sans-Serif" font-size="32.00" fill="#29235c">content &#160;&#160;&#160;</text>
<text text-anchor="start" x="409.29" y="-2539.16" font-family="Helvetica,sans-Serif" font-style="italic" font-size="32.00" fill="#29235c">VARCHAR</text>
<polygon fill="#e7e2dd" stroke="transparent" points="182.72,-2457.96 182.72,-2517.96 576.72,-2517.96 576.72,-2457.96 182.72,-2457.96"/>
<polygon fill="none" stroke="#29235c" points="182.72,-2457.96 182.72,-2517.96 576.72,-2517.96 576.72,-2457.96 182.72,-2457.96"/>
<text text-anchor="start" x="193.38" y="-2478.16" font-family="Helvetica,sans-Serif" font-size="32.00" fill="#29235c">date_posted &#160;&#160;&#160;</text>
<text text-anchor="start" x="404.33" y="-2479.16" font-family="Helvetica,sans-Serif" font-style="italic" font-size="32.00" fill="#29235c">DATETIME</text>
<polygon fill="none" stroke="#29235c" stroke-width="2" points="181.72,-2456.96 181.72,-2758.96 577.72,-2758.96 577.72,-2456.96 181.72,-2456.96"/>
</g>
<!-- Configuration -->
<g id="Configuration" class="node">
<title>Configuration</title>
<ellipse fill="none" stroke="black" stroke-width="0" cx="379.72" cy="-1711.96" rx="248.8" ry="214.92"/>
<polygon fill="#1d71b8" stroke="transparent" points="205.72,-1801.96 205.72,-1861.96 553.72,-1861.96 553.72,-1801.96 205.72,-1801.96"/>
<polygon fill="none" stroke="#29235c" points="205.72,-1801.96 205.72,-1861.96 553.72,-1861.96 553.72,-1801.96 205.72,-1801.96"/>
<text text-anchor="start" x="222.34" y="-1823.16" font-family="Helvetica,sans-Serif" font-weight="bold" font-size="32.00" fill="#ffffff"> &#160;&#160;&#160;&#160;&#160;&#160;Configuration &#160;&#160;&#160;&#160;&#160;&#160;</text>
<polygon fill="#e7e2dd" stroke="transparent" points="205.72,-1741.96 205.72,-1801.96 553.72,-1801.96 553.72,-1741.96 205.72,-1741.96"/>
<polygon fill="none" stroke="#29235c" points="205.72,-1741.96 205.72,-1801.96 553.72,-1801.96 553.72,-1741.96 205.72,-1741.96"/>
<text text-anchor="start" x="216.72" y="-1763.16" font-family="Helvetica,sans-Serif" font-weight="bold" font-size="32.00" fill="#29235c">id</text>
<text text-anchor="start" x="241.61" y="-1763.16" font-family="Helvetica,sans-Serif" font-size="32.00" fill="#29235c"> &#160;&#160;&#160;</text>
<text text-anchor="start" x="400.5" y="-1763.16" font-family="Helvetica,sans-Serif" font-style="italic" font-size="32.00" fill="#29235c">INTEGER</text>
<polygon fill="#e7e2dd" stroke="transparent" points="205.72,-1681.96 205.72,-1741.96 553.72,-1741.96 553.72,-1681.96 205.72,-1681.96"/>
<polygon fill="none" stroke="#29235c" points="205.72,-1681.96 205.72,-1741.96 553.72,-1741.96 553.72,-1681.96 205.72,-1681.96"/>
<text text-anchor="start" x="216.24" y="-1702.16" font-family="Helvetica,sans-Serif" font-size="32.00" fill="#29235c">product_id &#160;&#160;&#160;</text>
<text text-anchor="start" x="400.61" y="-1703.16" font-family="Helvetica,sans-Serif" font-style="italic" font-size="32.00" fill="#29235c">INTEGER</text>
<polygon fill="#e7e2dd" stroke="transparent" points="205.72,-1621.96 205.72,-1681.96 553.72,-1681.96 553.72,-1621.96 205.72,-1621.96"/>
<polygon fill="none" stroke="#29235c" points="205.72,-1621.96 205.72,-1681.96 553.72,-1681.96 553.72,-1621.96 205.72,-1621.96"/>
<text text-anchor="start" x="216.72" y="-1642.16" font-family="Helvetica,sans-Serif" font-size="32.00" fill="#29235c">name &#160;&#160;&#160;</text>
<text text-anchor="start" x="386.29" y="-1643.16" font-family="Helvetica,sans-Serif" font-style="italic" font-size="32.00" fill="#29235c">VARCHAR</text>
<polygon fill="#e7e2dd" stroke="transparent" points="205.72,-1561.96 205.72,-1621.96 553.72,-1621.96 553.72,-1561.96 205.72,-1561.96"/>
<polygon fill="none" stroke="#29235c" points="205.72,-1561.96 205.72,-1621.96 553.72,-1621.96 553.72,-1561.96 205.72,-1561.96"/>
<text text-anchor="start" x="216.72" y="-1582.16" font-family="Helvetica,sans-Serif" font-size="32.00" fill="#29235c">value &#160;&#160;&#160;</text>
<text text-anchor="start" x="386.29" y="-1583.16" font-family="Helvetica,sans-Serif" font-style="italic" font-size="32.00" fill="#29235c">VARCHAR</text>
<polygon fill="none" stroke="#29235c" stroke-width="2" points="204.72,-1560.96 204.72,-1862.96 554.72,-1862.96 554.72,-1560.96 204.72,-1560.96"/>
</g>
<!-- Product -->
<g id="Product" class="node">
<title>Product</title>
<ellipse fill="none" stroke="black" stroke-width="0" cx="1131.31" cy="-1088.96" rx="335.75" ry="214.92"/>
<polygon fill="#1d71b8" stroke="transparent" points="896.31,-1178.96 896.31,-1238.96 1367.31,-1238.96 1367.31,-1178.96 896.31,-1178.96"/>
<polygon fill="none" stroke="#29235c" points="896.31,-1178.96 896.31,-1238.96 1367.31,-1238.96 1367.31,-1178.96 896.31,-1178.96"/>
<text text-anchor="start" x="1014.43" y="-1200.16" font-family="Helvetica,sans-Serif" font-weight="bold" font-size="32.00" fill="#ffffff"> &#160;&#160;&#160;&#160;&#160;&#160;Product &#160;&#160;&#160;&#160;&#160;&#160;</text>
<polygon fill="#e7e2dd" stroke="transparent" points="896.31,-1118.96 896.31,-1178.96 1367.31,-1178.96 1367.31,-1118.96 896.31,-1118.96"/>
<polygon fill="none" stroke="#29235c" points="896.31,-1118.96 896.31,-1178.96 1367.31,-1178.96 1367.31,-1118.96 896.31,-1118.96"/>
<text text-anchor="start" x="907.31" y="-1140.16" font-family="Helvetica,sans-Serif" font-weight="bold" font-size="32.00" fill="#29235c">id</text>
<text text-anchor="start" x="932.2" y="-1140.16" font-family="Helvetica,sans-Serif" font-size="32.00" fill="#29235c"> &#160;&#160;&#160;</text>
<text text-anchor="start" x="1214.09" y="-1140.16" font-family="Helvetica,sans-Serif" font-style="italic" font-size="32.00" fill="#29235c">INTEGER</text>
<polygon fill="#e7e2dd" stroke="transparent" points="896.31,-1058.96 896.31,-1118.96 1367.31,-1118.96 1367.31,-1058.96 896.31,-1058.96"/>
<polygon fill="none" stroke="#29235c" points="896.31,-1058.96 896.31,-1118.96 1367.31,-1118.96 1367.31,-1058.96 896.31,-1058.96"/>
<text text-anchor="start" x="907.31" y="-1079.16" font-family="Helvetica,sans-Serif" font-size="32.00" fill="#29235c">name &#160;&#160;&#160;</text>
<text text-anchor="start" x="1199.88" y="-1080.16" font-family="Helvetica,sans-Serif" font-style="italic" font-size="32.00" fill="#29235c">VARCHAR</text>
<polygon fill="#e7e2dd" stroke="transparent" points="896.31,-998.96 896.31,-1058.96 1367.31,-1058.96 1367.31,-998.96 896.31,-998.96"/>
<polygon fill="none" stroke="#29235c" points="896.31,-998.96 896.31,-1058.96 1367.31,-1058.96 1367.31,-998.96 896.31,-998.96"/>
<text text-anchor="start" x="907.31" y="-1019.16" font-family="Helvetica,sans-Serif" font-size="32.00" fill="#29235c">description &#160;&#160;&#160;</text>
<text text-anchor="start" x="1199.88" y="-1020.16" font-family="Helvetica,sans-Serif" font-style="italic" font-size="32.00" fill="#29235c">VARCHAR</text>
<polygon fill="#e7e2dd" stroke="transparent" points="896.31,-938.96 896.31,-998.96 1367.31,-998.96 1367.31,-938.96 896.31,-938.96"/>
<polygon fill="none" stroke="#29235c" points="896.31,-938.96 896.31,-998.96 1367.31,-998.96 1367.31,-938.96 896.31,-938.96"/>
<text text-anchor="start" x="907" y="-959.16" font-family="Helvetica,sans-Serif" font-size="32.00" fill="#29235c">agile_ai_service_id &#160;&#160;&#160;</text>
<text text-anchor="start" x="1214.2" y="-960.16" font-family="Helvetica,sans-Serif" font-style="italic" font-size="32.00" fill="#29235c">INTEGER</text>
<polygon fill="none" stroke="#29235c" stroke-width="2" points="894.81,-937.96 894.81,-1239.96 1367.81,-1239.96 1367.81,-937.96 894.81,-937.96"/>
</g>
<!-- Configuration&#45;&gt;Product -->
<!-- Configuration&#45;&gt;Product -->
<g id="edge2" class="edge">
<title>Configuration:e&#45;&gt;Product:w</title>
<path fill="none" stroke="#29235c" stroke-width="3" d="M554.72,-1711.96C689.26,-1711.96 687.8,-1602.85 759.43,-1488.96 844.21,-1354.17 737.36,-1157.62 885.2,-1149.24"/>
<polygon fill="#29235c" stroke="#29235c" stroke-width="3" points="885.41,-1152.73 895.31,-1148.96 885.22,-1145.74 885.41,-1152.73"/>
<text text-anchor="middle" x="901.53" y="-1158.56" font-family="Helvetica,sans-Serif" font-size="32.00" fill="#29235c">*</text>
<text text-anchor="middle" x="545.82" y="-1721.56" font-family="Helvetica,sans-Serif" font-size="32.00" fill="#29235c">1</text>
</g>
<!-- Product&#45;&gt;AgileAiService -->
<!-- Product&#45;&gt;AgileAiService -->
<g id="edge4" class="edge">
<title>Product:e&#45;&gt;AgileAiService:w</title>
<path fill="none" stroke="#29235c" stroke-width="3" d="M1368.31,-968.96C1533.83,-968.96 1417.25,-666.75 1571.2,-654.35"/>
<polygon fill="#29235c" stroke="#29235c" stroke-width="3" points="1571.37,-657.85 1581.23,-653.96 1571.1,-650.85 1571.37,-657.85"/>
<text text-anchor="middle" x="1575.01" y="-625.16" font-family="Helvetica,sans-Serif" font-size="32.00" fill="#29235c">*</text>
<text text-anchor="middle" x="1377.2" y="-978.56" font-family="Helvetica,sans-Serif" font-size="32.00" fill="#29235c">1</text>
</g>
<!-- Customer -->
<g id="Customer" class="node">
<title>Customer</title>
<ellipse fill="none" stroke="black" stroke-width="0" cx="379.72" cy="-2159.96" rx="253.29" ry="214.92"/>
<polygon fill="#1d71b8" stroke="transparent" points="202.72,-2249.96 202.72,-2309.96 556.72,-2309.96 556.72,-2249.96 202.72,-2249.96"/>
<polygon fill="none" stroke="#29235c" points="202.72,-2249.96 202.72,-2309.96 556.72,-2309.96 556.72,-2249.96 202.72,-2249.96"/>
<text text-anchor="start" x="248.13" y="-2271.16" font-family="Helvetica,sans-Serif" font-weight="bold" font-size="32.00" fill="#ffffff"> &#160;&#160;&#160;&#160;&#160;&#160;Customer &#160;&#160;&#160;&#160;&#160;&#160;</text>
<polygon fill="#e7e2dd" stroke="transparent" points="202.72,-2189.96 202.72,-2249.96 556.72,-2249.96 556.72,-2189.96 202.72,-2189.96"/>
<polygon fill="none" stroke="#29235c" points="202.72,-2189.96 202.72,-2249.96 556.72,-2249.96 556.72,-2189.96 202.72,-2189.96"/>
<text text-anchor="start" x="213.72" y="-2211.16" font-family="Helvetica,sans-Serif" font-weight="bold" font-size="32.00" fill="#29235c">id</text>
<text text-anchor="start" x="238.61" y="-2211.16" font-family="Helvetica,sans-Serif" font-size="32.00" fill="#29235c"> &#160;&#160;&#160;</text>
<text text-anchor="start" x="403.5" y="-2211.16" font-family="Helvetica,sans-Serif" font-style="italic" font-size="32.00" fill="#29235c">INTEGER</text>
<polygon fill="#e7e2dd" stroke="transparent" points="202.72,-2129.96 202.72,-2189.96 556.72,-2189.96 556.72,-2129.96 202.72,-2129.96"/>
<polygon fill="none" stroke="#29235c" points="202.72,-2129.96 202.72,-2189.96 556.72,-2189.96 556.72,-2129.96 202.72,-2129.96"/>
<text text-anchor="start" x="213.72" y="-2150.16" font-family="Helvetica,sans-Serif" font-size="32.00" fill="#29235c">name &#160;&#160;&#160;</text>
<text text-anchor="start" x="389.29" y="-2151.16" font-family="Helvetica,sans-Serif" font-style="italic" font-size="32.00" fill="#29235c">VARCHAR</text>
<polygon fill="#e7e2dd" stroke="transparent" points="202.72,-2069.96 202.72,-2129.96 556.72,-2129.96 556.72,-2069.96 202.72,-2069.96"/>
<polygon fill="none" stroke="#29235c" points="202.72,-2069.96 202.72,-2129.96 556.72,-2129.96 556.72,-2069.96 202.72,-2069.96"/>
<text text-anchor="start" x="213.59" y="-2090.16" font-family="Helvetica,sans-Serif" font-size="32.00" fill="#29235c">industry_id &#160;&#160;&#160;</text>
<text text-anchor="start" x="403.61" y="-2091.16" font-family="Helvetica,sans-Serif" font-style="italic" font-size="32.00" fill="#29235c">INTEGER</text>
<polygon fill="#e7e2dd" stroke="transparent" points="202.72,-2009.96 202.72,-2069.96 556.72,-2069.96 556.72,-2009.96 202.72,-2009.96"/>
<polygon fill="none" stroke="#29235c" points="202.72,-2009.96 202.72,-2069.96 556.72,-2069.96 556.72,-2009.96 202.72,-2009.96"/>
<text text-anchor="start" x="213.72" y="-2030.16" font-family="Helvetica,sans-Serif" font-size="32.00" fill="#29235c">product_id &#160;&#160;&#160;</text>
<text text-anchor="start" x="403.5" y="-2031.16" font-family="Helvetica,sans-Serif" font-style="italic" font-size="32.00" fill="#29235c">INTEGER</text>
<polygon fill="none" stroke="#29235c" stroke-width="2" points="201.72,-2008.96 201.72,-2310.96 557.72,-2310.96 557.72,-2008.96 201.72,-2008.96"/>
</g>
<!-- Customer&#45;&gt;Product -->
<!-- Customer&#45;&gt;Product -->
<g id="edge8" class="edge">
<title>Customer:e&#45;&gt;Product:w</title>
<path fill="none" stroke="#29235c" stroke-width="3" d="M557.72,-2039.96C658.58,-2039.96 699.77,-2017.29 759.43,-1935.96 862.35,-1795.65 723.46,-1173.92 885.28,-1149.69"/>
<polygon fill="#29235c" stroke="#29235c" stroke-width="3" points="885.59,-1153.18 895.31,-1148.96 885.08,-1146.19 885.59,-1153.18"/>
<text text-anchor="middle" x="901.53" y="-1120.16" font-family="Helvetica,sans-Serif" font-size="32.00" fill="#29235c">*</text>
<text text-anchor="middle" x="548.82" y="-2049.56" font-family="Helvetica,sans-Serif" font-size="32.00" fill="#29235c">1</text>
</g>
<!-- Industry -->
<g id="Industry" class="node">
<title>Industry</title>
<ellipse fill="none" stroke="black" stroke-width="0" cx="1131.31" cy="-2219.96" rx="210.02" ry="130.22"/>
<polygon fill="#1d71b8" stroke="transparent" points="985.31,-2249.96 985.31,-2309.96 1278.31,-2309.96 1278.31,-2249.96 985.31,-2249.96"/>
<polygon fill="none" stroke="#29235c" points="985.31,-2249.96 985.31,-2309.96 1278.31,-2309.96 1278.31,-2249.96 985.31,-2249.96"/>
<text text-anchor="start" x="1012.66" y="-2271.16" font-family="Helvetica,sans-Serif" font-weight="bold" font-size="32.00" fill="#ffffff"> &#160;&#160;&#160;&#160;&#160;&#160;Industry &#160;&#160;&#160;&#160;&#160;&#160;</text>
<polygon fill="#e7e2dd" stroke="transparent" points="985.31,-2189.96 985.31,-2249.96 1278.31,-2249.96 1278.31,-2189.96 985.31,-2189.96"/>
<polygon fill="none" stroke="#29235c" points="985.31,-2189.96 985.31,-2249.96 1278.31,-2249.96 1278.31,-2189.96 985.31,-2189.96"/>
<text text-anchor="start" x="996.31" y="-2211.16" font-family="Helvetica,sans-Serif" font-weight="bold" font-size="32.00" fill="#29235c">id</text>
<text text-anchor="start" x="1021.2" y="-2211.16" font-family="Helvetica,sans-Serif" font-size="32.00" fill="#29235c"> &#160;&#160;&#160;</text>
<text text-anchor="start" x="1125.09" y="-2211.16" font-family="Helvetica,sans-Serif" font-style="italic" font-size="32.00" fill="#29235c">INTEGER</text>
<polygon fill="#e7e2dd" stroke="transparent" points="985.31,-2129.96 985.31,-2189.96 1278.31,-2189.96 1278.31,-2129.96 985.31,-2129.96"/>
<polygon fill="none" stroke="#29235c" points="985.31,-2129.96 985.31,-2189.96 1278.31,-2189.96 1278.31,-2129.96 985.31,-2129.96"/>
<text text-anchor="start" x="996.01" y="-2150.16" font-family="Helvetica,sans-Serif" font-size="32.00" fill="#29235c">name &#160;&#160;&#160;</text>
<text text-anchor="start" x="1111.1" y="-2151.16" font-family="Helvetica,sans-Serif" font-style="italic" font-size="32.00" fill="#29235c">VARCHAR</text>
<polygon fill="none" stroke="#29235c" stroke-width="2" points="983.81,-2128.96 983.81,-2310.96 1278.81,-2310.96 1278.81,-2128.96 983.81,-2128.96"/>
</g>
<!-- Customer&#45;&gt;Industry -->
<!-- Customer&#45;&gt;Industry -->
<g id="edge6" class="edge">
<title>Customer:e&#45;&gt;Industry:w</title>
<path fill="none" stroke="#29235c" stroke-width="3" d="M557.72,-2099.96C751.21,-2099.96 786.15,-2215.78 974.07,-2219.85"/>
<polygon fill="#29235c" stroke="#29235c" stroke-width="3" points="974.27,-2223.35 984.31,-2219.96 974.35,-2216.35 974.27,-2223.35"/>
<text text-anchor="middle" x="990.53" y="-2229.56" font-family="Helvetica,sans-Serif" font-size="32.00" fill="#29235c">*</text>
<text text-anchor="middle" x="548.82" y="-2109.56" font-family="Helvetica,sans-Serif" font-size="32.00" fill="#29235c">1</text>
</g>
<!-- Deployment -->
<g id="Deployment" class="node">
<title>Deployment</title>
<ellipse fill="none" stroke="black" stroke-width="0" cx="379.72" cy="-495.96" rx="330.44" ry="257.27"/>
<polygon fill="#1d71b8" stroke="transparent" points="148.72,-615.96 148.72,-675.96 611.72,-675.96 611.72,-615.96 148.72,-615.96"/>
<polygon fill="none" stroke="#29235c" points="148.72,-615.96 148.72,-675.96 611.72,-675.96 611.72,-615.96 148.72,-615.96"/>
<text text-anchor="start" x="232.62" y="-637.16" font-family="Helvetica,sans-Serif" font-weight="bold" font-size="32.00" fill="#ffffff"> &#160;&#160;&#160;&#160;&#160;&#160;Deployment &#160;&#160;&#160;&#160;&#160;&#160;</text>
<polygon fill="#e7e2dd" stroke="transparent" points="148.72,-555.96 148.72,-615.96 611.72,-615.96 611.72,-555.96 148.72,-555.96"/>
<polygon fill="none" stroke="#29235c" points="148.72,-555.96 148.72,-615.96 611.72,-615.96 611.72,-555.96 148.72,-555.96"/>
<text text-anchor="start" x="159.72" y="-577.16" font-family="Helvetica,sans-Serif" font-weight="bold" font-size="32.00" fill="#29235c">id</text>
<text text-anchor="start" x="184.61" y="-577.16" font-family="Helvetica,sans-Serif" font-size="32.00" fill="#29235c"> &#160;&#160;&#160;</text>
<text text-anchor="start" x="458.5" y="-577.16" font-family="Helvetica,sans-Serif" font-style="italic" font-size="32.00" fill="#29235c">INTEGER</text>
<polygon fill="#e7e2dd" stroke="transparent" points="148.72,-495.96 148.72,-555.96 611.72,-555.96 611.72,-495.96 148.72,-495.96"/>
<polygon fill="none" stroke="#29235c" points="148.72,-495.96 148.72,-555.96 611.72,-555.96 611.72,-495.96 148.72,-495.96"/>
<text text-anchor="start" x="159.72" y="-516.16" font-family="Helvetica,sans-Serif" font-size="32.00" fill="#29235c">product_id &#160;&#160;&#160;</text>
<text text-anchor="start" x="458.5" y="-517.16" font-family="Helvetica,sans-Serif" font-style="italic" font-size="32.00" fill="#29235c">INTEGER</text>
<polygon fill="#e7e2dd" stroke="transparent" points="148.72,-435.96 148.72,-495.96 611.72,-495.96 611.72,-435.96 148.72,-435.96"/>
<polygon fill="none" stroke="#29235c" points="148.72,-435.96 148.72,-495.96 611.72,-495.96 611.72,-435.96 148.72,-435.96"/>
<text text-anchor="start" x="159.72" y="-456.16" font-family="Helvetica,sans-Serif" font-size="32.00" fill="#29235c">platform_id &#160;&#160;&#160;</text>
<text text-anchor="start" x="458.5" y="-457.16" font-family="Helvetica,sans-Serif" font-style="italic" font-size="32.00" fill="#29235c">INTEGER</text>
<polygon fill="#e7e2dd" stroke="transparent" points="148.72,-375.96 148.72,-435.96 611.72,-435.96 611.72,-375.96 148.72,-375.96"/>
<polygon fill="none" stroke="#29235c" points="148.72,-375.96 148.72,-435.96 611.72,-435.96 611.72,-375.96 148.72,-375.96"/>
<text text-anchor="start" x="159.22" y="-396.16" font-family="Helvetica,sans-Serif" font-size="32.00" fill="#29235c">deployment_date &#160;&#160;&#160;</text>
<text text-anchor="start" x="439.33" y="-397.16" font-family="Helvetica,sans-Serif" font-style="italic" font-size="32.00" fill="#29235c">DATETIME</text>
<polygon fill="#e7e2dd" stroke="transparent" points="148.72,-315.96 148.72,-375.96 611.72,-375.96 611.72,-315.96 148.72,-315.96"/>
<polygon fill="none" stroke="#29235c" points="148.72,-315.96 148.72,-375.96 611.72,-375.96 611.72,-315.96 148.72,-315.96"/>
<text text-anchor="start" x="159.72" y="-336.16" font-family="Helvetica,sans-Serif" font-size="32.00" fill="#29235c">status &#160;&#160;&#160;</text>
<text text-anchor="start" x="444.29" y="-337.16" font-family="Helvetica,sans-Serif" font-style="italic" font-size="32.00" fill="#29235c">VARCHAR</text>
<polygon fill="none" stroke="#29235c" stroke-width="2" points="147.22,-314.96 147.22,-676.96 612.22,-676.96 612.22,-314.96 147.22,-314.96"/>
</g>
<!-- Deployment&#45;&gt;Product -->
<!-- Deployment&#45;&gt;Product -->
<g id="edge12" class="edge">
<title>Deployment:e&#45;&gt;Product:w</title>
<path fill="none" stroke="#29235c" stroke-width="3" d="M612.72,-525.96C736.22,-525.96 706.05,-650.59 759.43,-761.96 836.72,-923.22 717.71,-1140.5 885.23,-1148.72"/>
<polygon fill="#29235c" stroke="#29235c" stroke-width="3" points="885.23,-1152.22 895.31,-1148.96 885.39,-1145.22 885.23,-1152.22"/>
<text text-anchor="middle" x="889.09" y="-1158.56" font-family="Helvetica,sans-Serif" font-size="32.00" fill="#29235c">*</text>
<text text-anchor="middle" x="603.82" y="-497.16" font-family="Helvetica,sans-Serif" font-size="32.00" fill="#29235c">1</text>
</g>
<!-- Platform -->
<g id="Platform" class="node">
<title>Platform</title>
<ellipse fill="none" stroke="black" stroke-width="0" cx="1131.31" cy="-619.96" rx="263.09" ry="172.57"/>
<polygon fill="#1d71b8" stroke="transparent" points="947.31,-679.96 947.31,-739.96 1315.31,-739.96 1315.31,-679.96 947.31,-679.96"/>
<polygon fill="none" stroke="#29235c" points="947.31,-679.96 947.31,-739.96 1315.31,-739.96 1315.31,-679.96 947.31,-679.96"/>
<text text-anchor="start" x="1009.5" y="-701.16" font-family="Helvetica,sans-Serif" font-weight="bold" font-size="32.00" fill="#ffffff"> &#160;&#160;&#160;&#160;&#160;&#160;Platform &#160;&#160;&#160;&#160;&#160;&#160;</text>
<polygon fill="#e7e2dd" stroke="transparent" points="947.31,-619.96 947.31,-679.96 1315.31,-679.96 1315.31,-619.96 947.31,-619.96"/>
<polygon fill="none" stroke="#29235c" points="947.31,-619.96 947.31,-679.96 1315.31,-679.96 1315.31,-619.96 947.31,-619.96"/>
<text text-anchor="start" x="958.31" y="-641.16" font-family="Helvetica,sans-Serif" font-weight="bold" font-size="32.00" fill="#29235c">id</text>
<text text-anchor="start" x="983.2" y="-641.16" font-family="Helvetica,sans-Serif" font-size="32.00" fill="#29235c"> &#160;&#160;&#160;</text>
<text text-anchor="start" x="1162.09" y="-641.16" font-family="Helvetica,sans-Serif" font-style="italic" font-size="32.00" fill="#29235c">INTEGER</text>
<polygon fill="#e7e2dd" stroke="transparent" points="947.31,-559.96 947.31,-619.96 1315.31,-619.96 1315.31,-559.96 947.31,-559.96"/>
<polygon fill="none" stroke="#29235c" points="947.31,-559.96 947.31,-619.96 1315.31,-619.96 1315.31,-559.96 947.31,-559.96"/>
<text text-anchor="start" x="958.31" y="-580.16" font-family="Helvetica,sans-Serif" font-size="32.00" fill="#29235c">name &#160;&#160;&#160;</text>
<text text-anchor="start" x="1147.88" y="-581.16" font-family="Helvetica,sans-Serif" font-style="italic" font-size="32.00" fill="#29235c">VARCHAR</text>
<polygon fill="#e7e2dd" stroke="transparent" points="947.31,-499.96 947.31,-559.96 1315.31,-559.96 1315.31,-499.96 947.31,-499.96"/>
<polygon fill="none" stroke="#29235c" points="947.31,-499.96 947.31,-559.96 1315.31,-559.96 1315.31,-499.96 947.31,-499.96"/>
<text text-anchor="start" x="958.18" y="-520.16" font-family="Helvetica,sans-Serif" font-size="32.00" fill="#29235c">description &#160;&#160;&#160;</text>
<text text-anchor="start" x="1148.1" y="-521.16" font-family="Helvetica,sans-Serif" font-style="italic" font-size="32.00" fill="#29235c">VARCHAR</text>
<polygon fill="none" stroke="#29235c" stroke-width="2" points="946.31,-498.96 946.31,-740.96 1316.31,-740.96 1316.31,-498.96 946.31,-498.96"/>
</g>
<!-- Deployment&#45;&gt;Platform -->
<!-- Deployment&#45;&gt;Platform -->
<g id="edge10" class="edge">
<title>Deployment:e&#45;&gt;Platform:w</title>
<path fill="none" stroke="#29235c" stroke-width="3" d="M612.72,-465.96C778.56,-465.96 777.12,-642.49 936.11,-649.73"/>
<polygon fill="#29235c" stroke="#29235c" stroke-width="3" points="936.23,-653.24 946.31,-649.96 936.39,-646.24 936.23,-653.24"/>
<text text-anchor="middle" x="952.53" y="-621.16" font-family="Helvetica,sans-Serif" font-size="32.00" fill="#29235c">*</text>
<text text-anchor="middle" x="603.82" y="-437.16" font-family="Helvetica,sans-Serif" font-size="32.00" fill="#29235c">1</text>
</g>
<!-- HealthcareProduct -->
<g id="HealthcareProduct" class="node">
<title>HealthcareProduct</title>
<ellipse fill="none" stroke="black" stroke-width="0" cx="379.72" cy="-1306.96" rx="379.93" ry="172.57"/>
<polygon fill="#1d71b8" stroke="transparent" points="113.72,-1366.96 113.72,-1426.96 646.72,-1426.96 646.72,-1366.96 113.72,-1366.96"/>
<polygon fill="none" stroke="#29235c" points="113.72,-1366.96 113.72,-1426.96 646.72,-1426.96 646.72,-1366.96 113.72,-1366.96"/>
<text text-anchor="start" x="185.49" y="-1388.16" font-family="Helvetica,sans-Serif" font-weight="bold" font-size="32.00" fill="#ffffff"> &#160;&#160;&#160;&#160;&#160;&#160;HealthcareProduct &#160;&#160;&#160;&#160;&#160;&#160;</text>
<polygon fill="#e7e2dd" stroke="transparent" points="113.72,-1306.96 113.72,-1366.96 646.72,-1366.96 646.72,-1306.96 113.72,-1306.96"/>
<polygon fill="none" stroke="#29235c" points="113.72,-1306.96 113.72,-1366.96 646.72,-1366.96 646.72,-1306.96 113.72,-1306.96"/>
<text text-anchor="start" x="124.72" y="-1328.16" font-family="Helvetica,sans-Serif" font-weight="bold" font-size="32.00" fill="#29235c">id</text>
<text text-anchor="start" x="149.61" y="-1328.16" font-family="Helvetica,sans-Serif" font-size="32.00" fill="#29235c"> &#160;&#160;&#160;</text>
<text text-anchor="start" x="493.5" y="-1328.16" font-family="Helvetica,sans-Serif" font-style="italic" font-size="32.00" fill="#29235c">INTEGER</text>
<polygon fill="#e7e2dd" stroke="transparent" points="113.72,-1246.96 113.72,-1306.96 646.72,-1306.96 646.72,-1246.96 113.72,-1246.96"/>
<polygon fill="none" stroke="#29235c" points="113.72,-1246.96 113.72,-1306.96 646.72,-1306.96 646.72,-1246.96 113.72,-1246.96"/>
<text text-anchor="start" x="124.72" y="-1267.16" font-family="Helvetica,sans-Serif" font-size="32.00" fill="#29235c">product_id &#160;&#160;&#160;</text>
<text text-anchor="start" x="493.5" y="-1268.16" font-family="Helvetica,sans-Serif" font-style="italic" font-size="32.00" fill="#29235c">INTEGER</text>
<polygon fill="#e7e2dd" stroke="transparent" points="113.72,-1186.96 113.72,-1246.96 646.72,-1246.96 646.72,-1186.96 113.72,-1186.96"/>
<polygon fill="none" stroke="#29235c" points="113.72,-1186.96 113.72,-1246.96 646.72,-1246.96 646.72,-1186.96 113.72,-1186.96"/>
<text text-anchor="start" x="124.4" y="-1207.16" font-family="Helvetica,sans-Serif" font-size="32.00" fill="#29235c">regulation_compliance &#160;&#160;&#160;</text>
<text text-anchor="start" x="479.5" y="-1208.16" font-family="Helvetica,sans-Serif" font-style="italic" font-size="32.00" fill="#29235c">VARCHAR</text>
<polygon fill="none" stroke="#29235c" stroke-width="2" points="112.22,-1185.96 112.22,-1427.96 647.22,-1427.96 647.22,-1185.96 112.22,-1185.96"/>
</g>
<!-- HealthcareProduct&#45;&gt;Product -->
<!-- HealthcareProduct&#45;&gt;Product -->
<g id="edge14" class="edge">
<title>HealthcareProduct:e&#45;&gt;Product:w</title>
<path fill="none" stroke="#29235c" stroke-width="3" d="M647.72,-1276.96C768.08,-1276.96 771.34,-1156.11 885.08,-1149.26"/>
<polygon fill="#29235c" stroke="#29235c" stroke-width="3" points="885.42,-1152.75 895.31,-1148.96 885.21,-1145.76 885.42,-1152.75"/>
<text text-anchor="middle" x="889.09" y="-1120.16" font-family="Helvetica,sans-Serif" font-size="32.00" fill="#29235c">*</text>
<text text-anchor="middle" x="638.82" y="-1286.56" font-family="Helvetica,sans-Serif" font-size="32.00" fill="#29235c">1</text>
</g>
<!-- HospitalityProduct -->
<g id="HospitalityProduct" class="node">
<title>HospitalityProduct</title>
<ellipse fill="none" stroke="black" stroke-width="0" cx="379.72" cy="-943.96" rx="332.18" ry="172.57"/>
<polygon fill="#1d71b8" stroke="transparent" points="146.72,-1003.96 146.72,-1063.96 612.72,-1063.96 612.72,-1003.96 146.72,-1003.96"/>
<polygon fill="none" stroke="#29235c" points="146.72,-1003.96 146.72,-1063.96 612.72,-1063.96 612.72,-1003.96 146.72,-1003.96"/>
<text text-anchor="start" x="188.56" y="-1025.16" font-family="Helvetica,sans-Serif" font-weight="bold" font-size="32.00" fill="#ffffff"> &#160;&#160;&#160;&#160;&#160;&#160;HospitalityProduct &#160;&#160;&#160;&#160;&#160;&#160;</text>
<polygon fill="#e7e2dd" stroke="transparent" points="146.72,-943.96 146.72,-1003.96 612.72,-1003.96 612.72,-943.96 146.72,-943.96"/>
<polygon fill="none" stroke="#29235c" points="146.72,-943.96 146.72,-1003.96 612.72,-1003.96 612.72,-943.96 146.72,-943.96"/>
<text text-anchor="start" x="157.72" y="-965.16" font-family="Helvetica,sans-Serif" font-weight="bold" font-size="32.00" fill="#29235c">id</text>
<text text-anchor="start" x="182.61" y="-965.16" font-family="Helvetica,sans-Serif" font-size="32.00" fill="#29235c"> &#160;&#160;&#160;</text>
<text text-anchor="start" x="459.5" y="-965.16" font-family="Helvetica,sans-Serif" font-style="italic" font-size="32.00" fill="#29235c">INTEGER</text>
<polygon fill="#e7e2dd" stroke="transparent" points="146.72,-883.96 146.72,-943.96 612.72,-943.96 612.72,-883.96 146.72,-883.96"/>
<polygon fill="none" stroke="#29235c" points="146.72,-883.96 146.72,-943.96 612.72,-943.96 612.72,-883.96 146.72,-883.96"/>
<text text-anchor="start" x="157.72" y="-904.16" font-family="Helvetica,sans-Serif" font-size="32.00" fill="#29235c">product_id &#160;&#160;&#160;</text>
<text text-anchor="start" x="459.5" y="-905.16" font-family="Helvetica,sans-Serif" font-style="italic" font-size="32.00" fill="#29235c">INTEGER</text>
<polygon fill="#e7e2dd" stroke="transparent" points="146.72,-823.96 146.72,-883.96 612.72,-883.96 612.72,-823.96 146.72,-823.96"/>
<polygon fill="none" stroke="#29235c" points="146.72,-823.96 146.72,-883.96 612.72,-883.96 612.72,-823.96 146.72,-823.96"/>
<text text-anchor="start" x="157.68" y="-844.16" font-family="Helvetica,sans-Serif" font-size="32.00" fill="#29235c">user_experiences &#160;&#160;&#160;</text>
<text text-anchor="start" x="445.5" y="-845.16" font-family="Helvetica,sans-Serif" font-style="italic" font-size="32.00" fill="#29235c">VARCHAR</text>
<polygon fill="none" stroke="#29235c" stroke-width="2" points="145.72,-822.96 145.72,-1064.96 613.72,-1064.96 613.72,-822.96 145.72,-822.96"/>
</g>
<!-- HospitalityProduct&#45;&gt;Product -->
<!-- HospitalityProduct&#45;&gt;Product -->
<g id="edge16" class="edge">
<title>HospitalityProduct:e&#45;&gt;Product:w</title>
<path fill="none" stroke="#29235c" stroke-width="3" d="M613.72,-913.96C773.22,-913.96 734.11,-1138.97 885.09,-1148.64"/>
<polygon fill="#29235c" stroke="#29235c" stroke-width="3" points="885.2,-1152.15 895.31,-1148.96 885.42,-1145.15 885.2,-1152.15"/>
<text text-anchor="middle" x="901.53" y="-1158.56" font-family="Helvetica,sans-Serif" font-size="32.00" fill="#29235c">*</text>
<text text-anchor="middle" x="622.61" y="-913.96" font-family="Helvetica,sans-Serif" font-size="32.00" fill="#29235c">1</text>
</g>
<!-- ServiceSupport -->
<g id="ServiceSupport" class="node">
<title>ServiceSupport</title>
<ellipse fill="none" stroke="black" stroke-width="0" cx="1131.31" cy="-214.96" rx="335.75" ry="214.92"/>
<polygon fill="#1d71b8" stroke="transparent" points="896.31,-304.96 896.31,-364.96 1367.31,-364.96 1367.31,-304.96 896.31,-304.96"/>
<polygon fill="none" stroke="#29235c" points="896.31,-304.96 896.31,-364.96 1367.31,-364.96 1367.31,-304.96 896.31,-304.96"/>
<text text-anchor="start" x="960.2" y="-326.16" font-family="Helvetica,sans-Serif" font-weight="bold" font-size="32.00" fill="#ffffff"> &#160;&#160;&#160;&#160;&#160;&#160;ServiceSupport &#160;&#160;&#160;&#160;&#160;&#160;</text>
<polygon fill="#e7e2dd" stroke="transparent" points="896.31,-244.96 896.31,-304.96 1367.31,-304.96 1367.31,-244.96 896.31,-244.96"/>
<polygon fill="none" stroke="#29235c" points="896.31,-244.96 896.31,-304.96 1367.31,-304.96 1367.31,-244.96 896.31,-244.96"/>
<text text-anchor="start" x="907.31" y="-266.16" font-family="Helvetica,sans-Serif" font-weight="bold" font-size="32.00" fill="#29235c">id</text>
<text text-anchor="start" x="932.2" y="-266.16" font-family="Helvetica,sans-Serif" font-size="32.00" fill="#29235c"> &#160;&#160;&#160;</text>
<text text-anchor="start" x="1214.09" y="-266.16" font-family="Helvetica,sans-Serif" font-style="italic" font-size="32.00" fill="#29235c">INTEGER</text>
<polygon fill="#e7e2dd" stroke="transparent" points="896.31,-184.96 896.31,-244.96 1367.31,-244.96 1367.31,-184.96 896.31,-184.96"/>
<polygon fill="none" stroke="#29235c" points="896.31,-184.96 896.31,-244.96 1367.31,-244.96 1367.31,-184.96 896.31,-184.96"/>
<text text-anchor="start" x="907" y="-205.16" font-family="Helvetica,sans-Serif" font-size="32.00" fill="#29235c">agile_ai_service_id &#160;&#160;&#160;</text>
<text text-anchor="start" x="1214.2" y="-206.16" font-family="Helvetica,sans-Serif" font-style="italic" font-size="32.00" fill="#29235c">INTEGER</text>
<polygon fill="#e7e2dd" stroke="transparent" points="896.31,-124.96 896.31,-184.96 1367.31,-184.96 1367.31,-124.96 896.31,-124.96"/>
<polygon fill="none" stroke="#29235c" points="896.31,-124.96 896.31,-184.96 1367.31,-184.96 1367.31,-124.96 896.31,-124.96"/>
<text text-anchor="start" x="907.31" y="-145.16" font-family="Helvetica,sans-Serif" font-size="32.00" fill="#29235c">support_type &#160;&#160;&#160;</text>
<text text-anchor="start" x="1199.88" y="-146.16" font-family="Helvetica,sans-Serif" font-style="italic" font-size="32.00" fill="#29235c">VARCHAR</text>
<polygon fill="#e7e2dd" stroke="transparent" points="896.31,-64.96 896.31,-124.96 1367.31,-124.96 1367.31,-64.96 896.31,-64.96"/>
<polygon fill="none" stroke="#29235c" points="896.31,-64.96 896.31,-124.96 1367.31,-124.96 1367.31,-64.96 896.31,-64.96"/>
<text text-anchor="start" x="907.31" y="-85.16" font-family="Helvetica,sans-Serif" font-size="32.00" fill="#29235c">details &#160;&#160;&#160;</text>
<text text-anchor="start" x="1199.88" y="-86.16" font-family="Helvetica,sans-Serif" font-style="italic" font-size="32.00" fill="#29235c">VARCHAR</text>
<polygon fill="none" stroke="#29235c" stroke-width="2" points="894.81,-63.96 894.81,-365.96 1367.81,-365.96 1367.81,-63.96 894.81,-63.96"/>
</g>
<!-- ServiceSupport&#45;&gt;AgileAiService -->
<!-- ServiceSupport&#45;&gt;AgileAiService -->
<g id="edge18" class="edge">
<title>ServiceSupport:e&#45;&gt;AgileAiService:w</title>
<path fill="none" stroke="#29235c" stroke-width="3" d="M1368.31,-214.96C1581.66,-214.96 1371.38,-639.93 1571.08,-653.62"/>
<polygon fill="#29235c" stroke="#29235c" stroke-width="3" points="1571.12,-657.13 1581.23,-653.96 1571.35,-650.13 1571.12,-657.13"/>
<text text-anchor="middle" x="1575.01" y="-663.56" font-family="Helvetica,sans-Serif" font-size="32.00" fill="#29235c">*</text>
<text text-anchor="middle" x="1377.2" y="-186.16" font-family="Helvetica,sans-Serif" font-size="32.00" fill="#29235c">1</text>
</g>
<!-- Specialty -->
<g id="Specialty" class="node">
<title>Specialty</title>
<ellipse fill="none" stroke="black" stroke-width="0" cx="379.72" cy="-2970.96" rx="210.02" ry="130.22"/>
<polygon fill="#1d71b8" stroke="transparent" points="233.72,-3000.96 233.72,-3060.96 526.72,-3060.96 526.72,-3000.96 233.72,-3000.96"/>
<polygon fill="none" stroke="#29235c" points="233.72,-3000.96 233.72,-3060.96 526.72,-3060.96 526.72,-3000.96 233.72,-3000.96"/>
<text text-anchor="start" x="253.07" y="-3022.16" font-family="Helvetica,sans-Serif" font-weight="bold" font-size="32.00" fill="#ffffff"> &#160;&#160;&#160;&#160;&#160;&#160;Specialty &#160;&#160;&#160;&#160;&#160;&#160;</text>
<polygon fill="#e7e2dd" stroke="transparent" points="233.72,-2940.96 233.72,-3000.96 526.72,-3000.96 526.72,-2940.96 233.72,-2940.96"/>
<polygon fill="none" stroke="#29235c" points="233.72,-2940.96 233.72,-3000.96 526.72,-3000.96 526.72,-2940.96 233.72,-2940.96"/>
<text text-anchor="start" x="244.72" y="-2962.16" font-family="Helvetica,sans-Serif" font-weight="bold" font-size="32.00" fill="#29235c">id</text>
<text text-anchor="start" x="269.61" y="-2962.16" font-family="Helvetica,sans-Serif" font-size="32.00" fill="#29235c"> &#160;&#160;&#160;</text>
<text text-anchor="start" x="373.5" y="-2962.16" font-family="Helvetica,sans-Serif" font-style="italic" font-size="32.00" fill="#29235c">INTEGER</text>
<polygon fill="#e7e2dd" stroke="transparent" points="233.72,-2880.96 233.72,-2940.96 526.72,-2940.96 526.72,-2880.96 233.72,-2880.96"/>
<polygon fill="none" stroke="#29235c" points="233.72,-2880.96 233.72,-2940.96 526.72,-2940.96 526.72,-2880.96 233.72,-2880.96"/>
<text text-anchor="start" x="244.42" y="-2901.16" font-family="Helvetica,sans-Serif" font-size="32.00" fill="#29235c">name &#160;&#160;&#160;</text>
<text text-anchor="start" x="359.5" y="-2902.16" font-family="Helvetica,sans-Serif" font-style="italic" font-size="32.00" fill="#29235c">VARCHAR</text>
<polygon fill="none" stroke="#29235c" stroke-width="2" points="232.22,-2879.96 232.22,-3061.96 527.22,-3061.96 527.22,-2879.96 232.22,-2879.96"/>
</g>
</g>
</svg>
